<?xml version="1.0" encoding="UTF-8"?><svg xmlns="http://www.w3.org/2000/svg" xmlns:xlink="http://www.w3.org/1999/xlink" viewBox="0 0 1171.87 233.66"><defs><clipPath id="b"><polygon points="339.19 18.3 339.19 68.14 376.96 68.14 376.96 59.19 349.37 59.19 349.37 46.36 373.59 46.36 373.59 37.71 349.37 37.71 349.37 27.13 375.74 27.13 375.74 18.3 339.19 18.3" fill="none"/></clipPath><linearGradient id="c" x1="451.03" y1="877.85" x2="466.17" y2="877.85" gradientTransform="translate(-785.98 2233.14) scale(2.49 -2.49)" gradientUnits="userSpaceOnUse"><stop offset="0" stop-color="#010101"/><stop offset=".88" stop-color="#4f4f4f"/><stop offset=".92" stop-color="#4b4b4b"/><stop offset=".96" stop-color="#414141"/><stop offset=".99" stop-color="#30302f"/><stop offset="1" stop-color="#272726"/></linearGradient><clipPath id="d"><path d="m388.37,21.28c-3.26,2.95-4.88,6.65-4.88,11.13,0,4.89,1.68,8.47,5.04,10.78,1.98,1.36,5.57,2.64,10.77,3.82l5.27,1.18c3.07.68,5.35,1.45,6.78,2.35s2.17,2.17,2.17,3.82c0,2.82-1.44,4.74-4.36,5.77-1.53.55-3.53.82-5.98.82-4.1,0-7.01-1.01-8.69-3.07-.92-1.14-1.56-2.82-1.86-5.12h-9.95c0,5.19,1.88,9.27,5.59,12.24,3.71,2.97,8.83,4.45,15.31,4.45s11.28-1.51,14.77-4.53c3.48-3,5.22-6.78,5.22-11.34s-1.48-7.83-4.45-10.18c-1.92-1.51-4.77-2.71-8.53-3.62l-8.59-2.06c-3.32-.8-5.48-1.47-6.51-2.06-1.56-.89-2.35-2.21-2.35-4,0-1.94.79-3.45,2.39-4.53,1.59-1.09,3.74-1.62,6.42-1.62,2.42,0,4.44.41,6.07,1.24,2.42,1.27,3.73,3.39,3.91,6.39h10.01c-.18-5.3-2.12-9.33-5.83-12.12-3.73-2.79-8.19-4.18-13.43-4.18-6.3,0-11.07,1.48-14.31,4.44" fill="none"/></clipPath><linearGradient id="e" x1="473.08" y1="860.01" x2="488.23" y2="860.01" gradientTransform="translate(-894.51 2364.9) scale(2.7 -2.7)" xlink:href="#c"/><clipPath id="f"><polygon points="427.12 18.3 427.12 27.13 442.1 27.13 442.1 68.14 452.58 68.14 452.58 27.13 467.49 27.13 467.49 18.3 427.12 18.3" fill="none"/></clipPath><linearGradient id="g" x1="487.77" y1="862.71" x2="502.91" y2="862.71" gradientTransform="translate(-873.41 2343.42) scale(2.67 -2.67)" xlink:href="#c"/><clipPath id="h"><path d="m488.53,29.69l6.22,19.63h-12.65l6.42-19.63Zm-5.78-11.39l-17.78,49.84h10.89l3.45-10.22h18.35l3.21,10.22h11.28l-17.63-49.84h-11.78Z" fill="none"/></clipPath><linearGradient id="i" x1="507.14" y1="830.86" x2="522.28" y2="830.86" gradientTransform="translate(-1115.99 2633.31) scale(3.12 -3.12)" xlink:href="#c"/><clipPath id="j"><path d="m528.6,26.96h9.6c4.74,0,7.91,1.35,9.51,4.06,1.57,2.73,2.36,6.62,2.36,11.71,0,3.66-.53,6.85-1.57,9.5-1.95,4.86-5.38,7.27-10.3,7.27h-9.6V26.96Zm-10.1-8.66v49.84h21.46c7.54,0,13.11-3.09,16.72-9.28,2.65-4.6,4-10.21,4-16.86,0-2.6-.32-5.36-.95-8.24-.64-2.89-1.82-5.57-3.56-8.06-2.17-3.07-5-5.16-8.48-6.33-2.06-.67-4.62-1.03-7.72-1.08h-21.46Z" fill="none"/></clipPath><linearGradient id="k" x1="520.78" y1="853.33" x2="535.93" y2="853.33" gradientTransform="translate(-931.82 2419.64) scale(2.78 -2.78)" xlink:href="#c"/><clipPath id="l"><rect x="567.7" y="18.3" width="10.34" height="49.84" fill="none"/></clipPath><linearGradient id="m" x1="518.81" y1="1501.44" x2="533.94" y2="1501.44" gradientTransform="translate(213.21 1069.13) scale(.68 -.68)" xlink:href="#c"/><clipPath id="n"><path d="m591.04,21.28c-3.24,2.95-4.88,6.65-4.88,11.13,0,4.89,1.68,8.47,5.03,10.78,2,1.36,5.59,2.64,10.77,3.82l5.29,1.18c3.07.68,5.35,1.45,6.78,2.35,1.44.89,2.17,2.17,2.17,3.82,0,2.82-1.44,4.74-4.36,5.77-1.53.55-3.53.82-5.98.82-4.1,0-7.01-1.01-8.69-3.07-.92-1.14-1.56-2.82-1.86-5.12h-9.95c0,5.19,1.88,9.27,5.59,12.24,3.71,2.97,8.83,4.45,15.31,4.45s11.28-1.51,14.77-4.53c3.48-3,5.22-6.78,5.22-11.34s-1.48-7.83-4.45-10.18c-1.92-1.51-4.77-2.71-8.53-3.62l-8.59-2.06c-3.32-.8-5.48-1.47-6.51-2.06-1.56-.89-2.35-2.21-2.35-4,0-1.94.79-3.45,2.39-4.53,1.59-1.09,3.74-1.62,6.42-1.62,2.42,0,4.44.41,6.07,1.24,2.42,1.27,3.73,3.39,3.91,6.39h10.01c-.18-5.3-2.12-9.33-5.83-12.12-3.73-2.79-8.19-4.18-13.43-4.18-6.3,0-11.07,1.48-14.31,4.44" fill="none"/></clipPath><linearGradient id="o" x1="543.2" y1="860.01" x2="558.34" y2="860.01" gradientTransform="translate(-881.13 2364.9) scale(2.7 -2.7)" xlink:href="#c"/><clipPath id="p"><polygon points="629.78 18.3 629.78 27.13 644.77 27.13 644.77 68.14 655.25 68.14 655.25 27.13 670.16 27.13 670.16 18.3 629.78 18.3" fill="none"/></clipPath><linearGradient id="q" x1="558.76" y1="862.71" x2="573.91" y2="862.71" gradientTransform="translate(-860.03 2343.42) scale(2.67 -2.67)" xlink:href="#c"/><clipPath id="r"><rect x="675.43" y="18.3" width="10.34" height="49.84" fill="none"/></clipPath><linearGradient id="s" x1="666.06" y1="1501.44" x2="681.2" y2="1501.44" gradientTransform="translate(220.32 1069.13) scale(.68 -.68)" xlink:href="#c"/><clipPath id="t"><path d="m700.33,23.51c-4.66,4.71-7,11.42-7,20.13,0,8.04,2.04,14.39,6.15,19.01,4.1,4.59,9.74,6.89,16.92,6.89,5.78,0,10.56-1.7,14.25-5.1,3.71-3.39,6.01-7.81,6.92-13.25h-10.33c-.71,2.56-1.57,4.5-2.62,5.77-1.92,2.39-4.71,3.59-8.37,3.59s-6.48-1.39-8.8-4.16c-2.32-2.8-3.47-6.98-3.47-12.57s1.09-9.9,3.29-12.98c2.18-3.04,5.16-4.57,8.95-4.57s6.53,1.09,8.42,3.24c1.08,1.23,1.92,3.03,2.6,5.41h10.42c-.17-3.1-1.3-6.21-3.45-9.28-3.86-5.51-9.99-8.25-18.4-8.25-6.27,0-11.42,2.04-15.48,6.15" fill="none"/></clipPath><linearGradient id="u" x1="577.66" y1="843" x2="592.8" y2="843" gradientTransform="translate(-997.74 2511.29) scale(2.93 -2.93)" xlink:href="#c"/><clipPath id="v"><path d="m765.56,29.69l6.24,19.63h-12.66l6.42-19.63Zm-5.77-11.39l-17.79,49.84h10.89l3.45-10.22h18.35l3.23,10.22h11.3l-17.66-49.84h-11.77Z" fill="none"/></clipPath><linearGradient id="w" x1="590.14" y1="830.86" x2="605.29" y2="830.86" gradientTransform="translate(-1097.7 2633.31) scale(3.12 -3.12)" xlink:href="#c"/><clipPath id="x"><path d="m798.8,21.28c-3.24,2.95-4.86,6.65-4.86,11.13,0,4.89,1.7,8.47,5.04,10.78,1.98,1.36,5.56,2.64,10.75,3.82l5.27,1.18c3.09.68,5.36,1.45,6.8,2.35,1.44.89,2.18,2.17,2.18,3.82,0,2.82-1.47,4.74-4.38,5.77-1.53.55-3.51.82-5.98.82-4.1,0-7-1.01-8.71-3.07-.92-1.14-1.53-2.82-1.85-5.12h-9.93c0,5.19,1.85,9.27,5.57,12.24,3.73,2.97,8.83,4.45,15.33,4.45s11.28-1.51,14.75-4.53c3.5-3,5.22-6.78,5.22-11.34s-1.48-7.83-4.45-10.18c-1.92-1.51-4.76-2.71-8.53-3.62l-8.6-2.06c-3.3-.8-5.47-1.47-6.48-2.06-1.57-.89-2.36-2.21-2.36-4,0-1.94.79-3.45,2.41-4.53,1.59-1.09,3.73-1.62,6.42-1.62,2.41,0,4.42.41,6.04,1.24,2.44,1.27,3.76,3.39,3.91,6.39h10.03c-.18-5.3-2.12-9.33-5.82-12.12-3.73-2.79-8.21-4.18-13.46-4.18-6.28,0-11.06,1.48-14.31,4.44" fill="none"/></clipPath><linearGradient id="y" x1="615.08" y1="860.01" x2="630.22" y2="860.01" gradientTransform="translate(-867.41 2364.9) scale(2.7 -2.7)" xlink:href="#c"/><clipPath id="z"><rect x="283.92" y="3.2" width="603.44" height="43.19" fill="none"/></clipPath><clipPath id="aa"><path d="m880.27,11.09c-.14-.11-.27-.21-.41-.33-1.95-1.54-4.38-2.94-7.18-4.12-5.33-2.26-11.52-3.44-17.9-3.44H316.51c-6.38,0-12.57,1.18-17.9,3.44-2.82,1.18-5.22,2.57-7.18,4.12v.02c-.15.11-.29.21-.42.33-17.81,14.49.14,35.29,29.76,35.29h529.77c29.62,0,47.57-20.79,29.74-35.3" fill="none"/></clipPath><linearGradient id="ab" x1="664.42" y1="642.61" x2="679.57" y2="642.61" gradientTransform="translate(3567.96 3153.17) rotate(-90) scale(4.64 -4.64)" gradientUnits="userSpaceOnUse"><stop offset="0" stop-color="#010101"/><stop offset=".2" stop-color="#010101"/><stop offset=".28" stop-color="#090704"/><stop offset=".4" stop-color="#1f190e"/><stop offset=".56" stop-color="#44361e"/><stop offset=".73" stop-color="#775f34"/><stop offset=".93" stop-color="#b79250"/><stop offset="1" stop-color="#d1a75b"/></linearGradient><clipPath id="ac"><path d="m4.94,86.39c-1.76,0-3.35,2.06-4.15,5.36C0,95.05.15,98.97,1.17,101.97l44.08,127.66c.42,1.24,1,2.27,1.64,2.97.65.7,1.39,1.06,2.12,1.06h1073.86c.73,0,1.45-.36,2.09-1.06.65-.7,1.23-1.73,1.67-2.97l44.07-127.66c1.03-3.01,1.18-6.92.38-10.24-.79-3.29-2.38-5.35-4.15-5.35H4.94Z" fill="none"/></clipPath><linearGradient id="ad" x1="536.22" y1="648.79" x2="551.37" y2="648.79" gradientTransform="translate(-41473.35 50340.18) scale(77.34 -77.34)" gradientUnits="userSpaceOnUse"><stop offset="0" stop-color="#181617"/><stop offset="1" stop-color="#343233"/></linearGradient><clipPath id="ae"><path d="m4.94,87.95c-1.47,0-2.8,1.73-3.48,4.5-.67,2.79-.55,6.07.32,8.6l44.08,127.65c.35,1.06.83,1.92,1.38,2.5.55.59,1.15.89,1.77.89h1073.86c.61,0,1.23-.3,1.77-.89s1.01-1.44,1.39-2.5l44.05-127.65c.88-2.53,1-5.82.33-8.6-.67-2.77-2-4.5-3.5-4.5H4.94Z" fill="none"/></clipPath><linearGradient id="af" x1="536.22" y1="648.8" x2="551.37" y2="648.8" gradientTransform="translate(-41420.01 50277.15) scale(77.25 -77.25)" gradientUnits="userSpaceOnUse"><stop offset="0" stop-color="#be6f29"/><stop offset=".04" stop-color="#be6f29"/><stop offset=".16" stop-color="#ffd557"/><stop offset=".26" stop-color="#ffcf49"/><stop offset=".42" stop-color="#e39e25"/><stop offset=".58" stop-color="#fff6e9"/><stop offset=".67" stop-color="#fff"/><stop offset=".8" stop-color="#ffc63c"/><stop offset=".87" stop-color="#ffd251"/><stop offset="1" stop-color="#be6f29"/></linearGradient></defs><g isolation="isolate"><g id="a"><path d="m884,8.81c-2.38-1.89-5.22-3.5-8.36-4.82-6.07-2.56-13.31-4-20.87-4H316.5c-7.54,0-14.78,1.44-20.85,4-3.13,1.32-5.98,2.92-8.36,4.82l-97.31,77.57h791.91l-97.88-77.57Z" fill="#fced1c"/><g clip-path="url(#b)"><rect x="339.19" y="18.3" width="37.77" height="49.84" fill="url(#c)"/></g><g clip-path="url(#d)"><rect x="382.67" y="16.84" width="40.89" height="52.59" fill="url(#e)"/></g><g clip-path="url(#f)"><rect x="427.12" y="18.3" width="40.37" height="49.84" fill="url(#g)"/></g><g clip-path="url(#h)"><rect x="464.96" y="18.3" width="47.19" height="49.84" fill="url(#i)"/></g><g clip-path="url(#j)"><rect x="518.5" y="18.3" width="42.18" height="49.84" fill="url(#k)"/></g><g clip-path="url(#l)"><rect x="567.7" y="18.3" width="10.34" height="49.84" fill="url(#m)"/></g><g clip-path="url(#n)"><rect x="585.34" y="16.84" width="40.89" height="52.59" fill="url(#o)"/></g><g clip-path="url(#p)"><rect x="629.78" y="18.3" width="40.39" height="49.84" fill="url(#q)"/></g><g clip-path="url(#r)"><rect x="675.43" y="18.3" width="10.34" height="49.84" fill="url(#s)"/></g><g clip-path="url(#t)"><rect x="693.33" y="17.36" width="44.33" height="52.17" fill="url(#u)"/></g><g clip-path="url(#v)"><rect x="741.99" y="18.3" width="47.22" height="49.84" fill="url(#w)"/></g><g clip-path="url(#x)"><rect x="793.13" y="16.84" width="40.87" height="52.59" fill="url(#y)"/></g><g mix-blend-mode="screen"><g clip-path="url(#z)"><g clip-path="url(#aa)"><rect x="273.2" y="3.2" width="624.9" height="43.19" fill="url(#ab)"/></g></g></g><g clip-path="url(#ac)"><rect y="86.39" width="1171.87" height="147.27" fill="url(#ad)"/></g><g clip-path="url(#ae)"><rect x=".79" y="87.95" width="1170.29" height="144.14" fill="url(#af)"/></g><path d="m49,225.31c-.11,0-.21-.06-.3-.15-.11-.12-.2-.26-.26-.45L4.38,97.05c-.2-.61-.14-1.17-.05-1.53.08-.36.26-.79.61-.79h1161.99c.35,0,.51.42.61.79.09.36.15.92-.06,1.53l-44.05,127.65c-.08.2-.15.35-.24.44-.11.11-.21.17-.32.17H49Z" fill="#fff"/><polygon points="49 223.74 4.98 96.12 1166.93 96.3 1122.83 223.74 1122.86 223.74 49 223.74" fill="#3564ae"/><text transform="translate(89.48 137.54)" fill="#fff" font-family="Helvetica-Bold, Helvetica" font-size="30.29" font-weight="700"><tspan x="0" y="0">JUEGOS</tspan></text><text transform="translate(118.91 204.11)" fill="#fff" font-family="Helvetica-Bold, Helvetica" font-size="60.58" font-weight="700"><tspan x="0" y="0">20</tspan></text><text transform="translate(389.87 204.11)" fill="#fff" font-family="Helvetica-Bold, Helvetica" font-size="60.58" font-weight="700"><tspan x="0" y="0">13</tspan></text><text transform="translate(692.99 204.11)" fill="#fff" font-family="Helvetica-Bold, Helvetica" font-size="60.58" font-weight="700"><tspan x="0" y="0">10</tspan></text><text transform="translate(972.84 204.11)" fill="#fff" font-family="Helvetica-Bold, Helvetica" font-size="60.58" font-weight="700"><tspan x="0" y="0">12</tspan></text><text transform="translate(357.78 137.54)" fill="#fff" font-family="Helvetica-Bold, Helvetica" font-size="30.29" font-weight="700"><tspan x="0" y="0">MINUTOS</tspan></text><text transform="translate(676 137.54)" fill="#fff" font-family="Helvetica-Bold, Helvetica" font-size="30.29" font-weight="700"><tspan x="0" y="0">GOLES</tspan></text><text transform="translate(900.24 137.54)" fill="#fff" font-family="Helvetica-Bold, Helvetica" font-size="30.29" font-weight="700"><tspan x="0" y="0">ASISTENCIAS</tspan></text></g></g></svg>